# xmcd CD database file
#
# Track frame offsets:
#	150
#	16200
#	36675
#	53025
#	69900
#	81825
#	98475
#	117450
#	137100
#	151497
#
# Disc length: 2265 seconds
#
# Revision: 0
# Processed by: cddbd v1.4PL0 Copyright (c) Steve Scherf et al.
# Submitted via: CdAid (MTCDDB.DLL V2003.07.15)
#
DISCID=8008d70a
DTITLE=Randy Hughes - A Pocket Full Of Dreams
DYEAR=1995
DGENRE=Country
TTITLE0=Hey Now
TTITLE1=Nobody Name
TTITLE2=Laura
TTITLE3=Slow Down
TTITLE4=Trying Not To Hit The Ground
TTITLE5=Healing
TTITLE6=Hero
TTITLE7=How Time Flies
TTITLE8=Betty Sue
TTITLE9=Take My Hand
EXTD=ID3G:   2 YEAR: 1995
EXTT0=
EXTT1=
EXTT2=
EXTT3=
EXTT4=
EXTT5=
EXTT6=
EXTT7=
EXTT8=
EXTT9=
PLAYORDER=
